<svg xmlns="http://www.w3.org/2000/svg" xmlns:xlink="http://www.w3.org/1999/xlink" width="512" height="512">
  <defs>
    <linearGradient id="immocoinGradient" x1="0%" y1="0%" x2="100%" y2="100%">
      <stop offset="0%" style="stop-color:#68D391" />
      <stop offset="100%" style="stop-color:#4299E1" />
    </linearGradient>
  </defs>
  <path d="M253.929 25.3303L254.014 25.2888C261.768 23.9757 268.502 30.5961 274.005 35.0455L326.229 75.3849L477.5 189.01C487.028 196.135 486.216 202.336 486.229 212.829L486.281 246.862C486.302 252.029 486.814 256.338 484.173 261.005L483.209 262.625C471.754 279.518 453.973 262.242 443.722 254.527L369.954 197.535L258.135 112.413L256.194 111.037C252.778 112.618 249.684 115.07 246.684 117.322L60.5554 259.199C54.2741 263.929 47.7498 270.697 39.1069 269.074L38.1094 268.882C26.1318 266.369 25.6823 255.276 25.8218 245.913L25.8918 212.459C25.905 195.883 27.0747 194.376 41.265 183.767L244.707 28.9429C247.472 27.0103 250.587 25.7649 253.929 25.3303Z" fill="url(#immocoinGradient)"/>
  <path d="M255.278 159.256L415.648 282.907C417.221 284.203 419.432 286.043 420.203 287.968L420.313 288.249C420.996 289.861 420.871 291.729 420.895 293.462L420.869 461.666C420.843 469.007 418.668 475.99 411.801 479.931L411.456 480.125C405.725 483.382 398.835 482.299 392.523 482.297L284.101 482.281L284.261 438.127C284.287 420.581 286.26 418.075 296.96 406.51C327.785 373.194 303.418 320.556 258.583 317.251C254.917 317.221 251.257 317.201 247.627 317.793C209.61 323.992 187.672 369.215 209.928 401.142C215.644 409.342 223.939 414.582 225.669 425.235C226.863 432.585 226.488 440.049 226.491 447.489L226.665 482.314L118.338 482.266C114.838 482.29 110.723 482.773 107.303 482.074L106.398 481.899C98.0721 480.229 92.0277 473.399 91.2397 464.959L91.1994 464.5C90.7595 459.853 91.0204 455.009 91.0187 450.339L91.0416 297.951C91.0458 295.656 90.8872 293.116 91.4151 290.884L91.5131 290.5C93.5436 282.21 106.804 274.502 113.265 269.398L255.278 159.256Z" fill="url(#immocoinGradient)"/>
</svg>
